<?xml version="1.0" encoding="UTF-8" standalone="no"?>
<!DOCTYPE svg PUBLIC "-//W3C//DTD SVG 1.1//EN" "http://www.w3.org/Graphics/SVG/1.1/DTD/svg11.dtd">
<svg width="100%" height="100%" viewBox="0 0 40 40" version="1.1" xmlns="http://www.w3.org/2000/svg" xmlns:xlink="http://www.w3.org/1999/xlink" xml:space="preserve" xmlns:serif="http://www.serif.com/" style="fill-rule:evenodd;clip-rule:evenodd;stroke-linejoin:round;stroke-miterlimit:2;">
    <g transform="matrix(0.0304796,0,0,0.0304796,-46.5919,-12.1974)">
        <path d="M1771.99,1340.62C1772.73,1343.07 1775.01,1343.25 1776.78,1344.04C1816.4,1361.4 1852.88,1384.68 1890.98,1404.91C1898.6,1408.96 1905.41,1414.5 1910.36,1421.81C1915.54,1429.48 1917.43,1437.7 1912.47,1446.14C1907.44,1454.68 1899.19,1456.9 1890.05,1455.66C1874.9,1453.61 1860.39,1448.74 1845.74,1444.6C1826.16,1439.07 1806.44,1434.43 1786.28,1431.43C1763.34,1428 1741.28,1420.89 1719.52,1413.05C1684.64,1400.46 1649.86,1387.6 1615.13,1374.61C1599.66,1368.81 1584.54,1362.14 1570.81,1352.76C1564.26,1348.3 1558.31,1343.17 1553.61,1336.74C1540.59,1318.91 1542.46,1297.29 1558.76,1282.43C1564.54,1277.15 1570.87,1272.27 1577.56,1268.19C1604.64,1251.65 1630.98,1233.79 1659.64,1219.98C1687.16,1206.73 1713.39,1191.27 1739.42,1175.41C1752.44,1167.47 1765.72,1159.99 1779.47,1153.39C1786.35,1150.09 1793.35,1147.09 1800.97,1145.84C1817.66,1143.11 1827.02,1154.19 1821.39,1170.19C1817.78,1180.51 1810.9,1188.69 1803.41,1196.36C1779.1,1221.23 1751.14,1241.41 1721.77,1259.77C1718.79,1261.63 1715.83,1263.5 1711.53,1266.21C1717.91,1268.23 1722.81,1266.88 1727.58,1266.5C1821,1259 1914.42,1251.5 2007.82,1243.82C2113.89,1235.1 2219.87,1225.43 2325.66,1213.65C2389.36,1206.56 2452.42,1195.74 2513.45,1175.34C2574.28,1155 2627.89,1123.14 2671.14,1075.12C2701.19,1041.75 2720.78,1002.18 2737.19,960.957C2767.06,885.859 2777.64,808.129 2767.43,727.785C2766.05,716.945 2763.51,706.32 2760.65,695.766C2758.92,689.398 2757.28,682.988 2756.01,676.523C2754.08,666.656 2756.65,660.203 2763.07,657.625C2769.29,655.129 2774.65,657.918 2780.84,665.793C2808.91,701.57 2820.53,743.148 2823.42,787.609C2831.12,906.234 2800.45,1014.16 2730.44,1110.16C2678.26,1181.71 2606.21,1224.98 2522.56,1250.45C2455.96,1270.73 2387.57,1282.26 2318.55,1289.49C2166.98,1305.36 2015.4,1321.14 1863.48,1333.34C1835.63,1335.57 1807.73,1336.98 1779.85,1338.87C1777.2,1339.05 1774.2,1338.25 1771.99,1340.62Z" style="fill:rgb(51,48,153);"/>
    </g>
</svg>
