<?xml version="1.0" encoding="UTF-8" standalone="no"?>
<!DOCTYPE svg PUBLIC "-//W3C//DTD SVG 1.1//EN" "http://www.w3.org/Graphics/SVG/1.1/DTD/svg11.dtd">
<svg width="100%" height="100%" viewBox="0 0 24 24" version="1.1" xmlns="http://www.w3.org/2000/svg" xmlns:xlink="http://www.w3.org/1999/xlink" xml:space="preserve" xmlns:serif="http://www.serif.com/" style="fill-rule:evenodd;clip-rule:evenodd;stroke-linejoin:round;stroke-miterlimit:2;">
    <path d="M19.55,21.95L13.075,15.475C12.592,15.808 12.029,16.075 11.388,16.275C10.746,16.475 10.05,16.575 9.3,16.575C7.333,16.575 5.663,15.887 4.288,14.512C2.913,13.137 2.225,11.467 2.225,9.5C2.225,7.533 2.913,5.863 4.288,4.487C5.663,3.112 7.333,2.425 9.3,2.425C11.267,2.425 12.938,3.112 14.313,4.487C15.688,5.863 16.375,7.533 16.375,9.5C16.375,10.267 16.275,10.962 16.075,11.587C15.875,12.212 15.608,12.758 15.275,13.225L21.775,19.75L19.55,21.95ZM9.3,13.425C10.4,13.425 11.329,13.046 12.088,12.288C12.846,11.529 13.225,10.6 13.225,9.5C13.225,8.4 12.846,7.471 12.088,6.712C11.329,5.954 10.4,5.575 9.3,5.575C8.2,5.575 7.271,5.954 6.513,6.712C5.754,7.471 5.375,8.4 5.375,9.5C5.375,10.6 5.754,11.529 6.513,12.288C7.271,13.046 8.2,13.425 9.3,13.425Z" style="fill:rgb(255,206,49);fill-rule:nonzero;stroke:rgb(51,48,154);stroke-width:1.28px;"/>
</svg>
